<?xml version="1.0" encoding="UTF-8"?><svg id="Layer_1" xmlns="http://www.w3.org/2000/svg" viewBox="0 0 28.14 18.9"><path d="m27.2,18.9H.9c-.5,0-.9-.4-.9-.9V1C0,.5.4.1.9.1h26.3c.5,0,.9.4.9.9v17.1c0,.4-.4.8-.9.8Zm-25.4-1.7h24.5V1.8H1.8v15.4Z" fill="#fff"/><path d="m14.1,13.7c-.2,0-.4-.1-.6-.2L.4,1.6c-.3-.2-.4-.6-.2-1,.1-.3.4-.6.8-.6h26.3c.4,0,.7.2.8.6.1.3,0,.7-.2,1l-13.2,11.8c-.2.2-.4.2-.6.3h0ZM3.2,1.8l10.9,9.8L24.9,1.8H3.2Z" fill="#fff"/><path d="m.9,18.9c-.2,0-.5-.1-.6-.3-.3-.4-.3-.9.1-1.2l8.9-7.8c.4-.3.9-.3,1.2.1s.3.9-.1,1.2L1.5,18.7c-.1.2-.4.2-.6.2h0Z" fill="#fff"/><path d="m27.2,18.9c-.2,0-.4-.1-.6-.2l-8.9-7.8c-.4-.3-.4-.9-.1-1.2s.9-.4,1.2-.1l8.9,7.8c.4.3.4.9.1,1.2-.1.2-.3.3-.6.3h0Z" fill="#fff"/></svg>