<?xml version="1.0" encoding="UTF-8"?><svg id="Layer_1" xmlns="http://www.w3.org/2000/svg" viewBox="0 0 48.55 27.38"><path d="m37.79,15.6H10.76c-.97,0-1.75-.78-1.75-1.75s.78-1.75,1.75-1.75h27.03c.97,0,1.75.78,1.75,1.75s-.78,1.75-1.75,1.75Z" fill="#fcbf0f"/><path d="m32.16,27.38h-15.77c-.97,0-1.75-.78-1.75-1.75s.78-1.75,1.75-1.75h15.77c.97,0,1.75.78,1.75,1.75s-.78,1.75-1.75,1.75Z" fill="#fcbf0f"/><path d="m46.8,3.5H1.75c-.97,0-1.75-.78-1.75-1.75S.78,0,1.75,0h45.05c.97,0,1.75.78,1.75,1.75s-.78,1.75-1.75,1.75Z" fill="#fcbf0f"/></svg>