<svg xmlns="http://www.w3.org/2000/svg" version="1.1" id="Ebene_1" x="0px" y="0px"
    viewBox="140.23 263.57 315 315">
    <circle fill="none" stroke="#585857" stroke-width="15" stroke-miterlimit="10" cx="297.73"
        cy="421.07" r="150" />
    <path fill="#585857"
        d="M239.76,475.34c5.65,30.62,28.59,46.47,53.53,46.47c32.25,0,53.2-12.31,53.2-45.75    c0-23.94-10.63-41.19-52.86-53.16c-43.22-11.97-65.83-26.76-65.83-63.01c0-33.79,25.28-58.78,64.18-58.78    c51.54,0,66.16,33.45,68.16,54.22l-17.29,0c-5.65-21.82-18.95-38.37-51.2-38.37c-33.58,0-45.89,19.36-45.89,41.18    c0,23.58,12.3,36.96,49.87,47.17c55.19,15.49,69.16,37.67,69.15,69.35c0,39.78-25.61,63.36-72.49,63    c-41.23-0.36-65.83-26.41-69.49-62.31L239.76,475.34z M286.97,570.39L287,276.11l15.63,0l-0.03,294.28L286.97,570.39z" />
</svg>