<?xml version="1.0" encoding="utf-8"?>
<!-- Generator: Adobe Illustrator 27.1.1, SVG Export Plug-In . SVG Version: 6.00 Build 0)  -->
<svg version="1.1" id="Ebene_1" xmlns="http://www.w3.org/2000/svg" xmlns:xlink="http://www.w3.org/1999/xlink" x="0px" y="0px"
	 viewBox="0 0 50 50" style="enable-background:new 0 0 50 50;" xml:space="preserve">
<style type="text/css">
	.st0{fill:#559EF7;}
</style>
<path class="st0" d="M25,2C12.3,2,2,12.3,2,25s10.3,23,23,23s23-10.3,23-23S37.7,2,25,2z M25,4c11.7,0,21,9.3,21,21s-9.3,21-21,21
	S4,36.7,4,25S13.3,4,25,4z M25,11c-1.7,0-3,1.3-3,3s1.3,3,3,3s3-1.3,3-3S26.7,11,25,11z M21,21v2h2v13h-2v2h8v-2h-2V21H21z"/>
</svg>
