<?xml version="1.0" encoding="utf-8"?>
<!-- Generator: Adobe Illustrator 27.1.1, SVG Export Plug-In . SVG Version: 6.00 Build 0)  -->
<svg version="1.1" id="Layer_1" xmlns="http://www.w3.org/2000/svg" xmlns:xlink="http://www.w3.org/1999/xlink" x="0px" y="0px"
	 viewBox="0 0 18.1 28" style="enable-background:new 0 0 18.1 28;" xml:space="preserve">
<style type="text/css">
	.st0{fill:#5B5A5A;}
</style>
<path class="st0" d="M17.3,28c-0.2,0-0.4-0.1-0.5-0.2l-7.6-6.1l-7.7,6.1c-0.3,0.2-0.6,0.2-0.9,0.1C0.2,27.8,0,27.5,0,27.1V0.9
	C0,0.4,0.4,0,0.9,0h16.4c0.5,0,0.9,0.4,0.9,0.9v26.2c0,0.3-0.2,0.6-0.5,0.8C17.5,28,17.4,28,17.3,28L17.3,28L17.3,28z M9.1,19.7
	c0.2,0,0.4,0.1,0.6,0.2l6.8,5.4V1.8H1.8v23.5l6.8-5.4C8.7,19.7,8.9,19.7,9.1,19.7L9.1,19.7L9.1,19.7z"/>
</svg>
