<svg width="16" height="22" viewBox="0 0 16 22" fill="none" xmlns="http://www.w3.org/2000/svg">
<path d="M15.2245 21.999C15.0612 21.999 14.898 21.9626 14.7347 21.8533L8 17.0454L1.26531 21.8533C1.02041 22.0354 0.693878 22.0354 0.44898 21.9262C0.204082 21.8169 0 21.5619 0 21.307V0.691076C0 0.326838 0.367347 -0.000976562 0.77551 -0.000976562H15.2245C15.6327 -0.000976562 16 0.326838 16 0.691076V21.307C16 21.5619 15.8367 21.8169 15.551 21.9262C15.4286 21.999 15.3061 21.999 15.2245 21.999ZM8 15.4792C8.16327 15.4792 8.32653 15.5156 8.4898 15.6249L14.449 19.8864V1.38313H1.55102V19.8864L7.5102 15.6249C7.67347 15.5156 7.83673 15.4792 8 15.4792Z" fill="white"/>
</svg>
