<svg version="1.1" id="Ebene_1" xmlns="http://www.w3.org/2000/svg" x="0px" y="0px"
    style="enable-background:new 0 0 595.28 841.89;" xml:space="preserve"
    viewBox="119.69 154.45 315 315">


    <circle stroke="#585857" stroke-width="15" fill="none" stroke-miterlimit="10" cx="277.19"
        cy="311.95" r="150" />
    <circle fill="#585857" stroke="#585857" stroke-width="4" stroke-miterlimit="10" cx="277.5"
        cy="312.78" r="12.5" />
    <path fill="none" stroke="#585857" stroke-width="10" stroke-miterlimit="10"
        d="M277.86,318.66L277.86,318.66c-0.28,0-0.5-0.22-0.5-0.5v-114c0-0.28,0.22-0.5,0.5-0.5l0,0 	c0.28,0,0.5,0.22,0.5,0.5v114C278.36,318.43,278.14,318.66,277.86,318.66z"></path>
    <path fill="none" stroke="#585857" stroke-width="10" stroke-miterlimit="10"
        d="M213.32,362.74L213.32,362.74c0.24-0.19,0.59-0.47,0.79-0.62l59.65-45.1c0.2-0.15,0.16-0.11-0.08,0.08l0,0 	c-0.24,0.19-0.59,0.47-0.79,0.62l-59.65,45.1C213.05,362.97,213.08,362.93,213.32,362.74z"></path>
    <path fill="none" stroke="#585857" stroke-width="5" stroke-miterlimit="10"
        d="M276.74,449.28L276.74,449.28c-0.28,0-0.5-0.22-0.5-0.5v-14c0-0.28,0.22-0.5,0.5-0.5l0,0 	c0.28,0,0.5,0.22,0.5,0.5v14C277.24,449.05,277.02,449.28,276.74,449.28z"></path>
    <path fill="none" stroke="#585857" stroke-width="5" stroke-miterlimit="10"
        d="M413.92,311.9L413.92,311.9c0,0.28-0.22,0.5-0.5,0.5h-14c-0.28,0-0.5-0.22-0.5-0.5l0,0c0-0.28,0.22-0.5,0.5-0.5 	h14C413.69,311.4,413.92,311.62,413.92,311.9z"></path>
    <path fill="none" stroke="#585857" stroke-width="5" stroke-miterlimit="10"
        d="M156.03,311.93L156.03,311.93c0,0.28-0.22,0.5-0.5,0.5h-14c-0.28,0-0.5-0.22-0.5-0.5l0,0 	c0-0.28,0.22-0.5,0.5-0.5h14C155.81,311.43,156.03,311.65,156.03,311.93z"></path>
    <path fill="none" stroke="#585857" stroke-width="5" stroke-miterlimit="10"
        d="M277.52,189.43L277.52,189.43c-0.28,0-0.5-0.22-0.5-0.5v-14c0-0.28,0.22-0.5,0.5-0.5l0,0 	c0.28,0,0.5,0.22,0.5,0.5v14C278.02,189.21,277.8,189.43,277.52,189.43z"></path> </svg>