<?xml version="1.0" standalone="no"?>
<!DOCTYPE svg PUBLIC "-//W3C//DTD SVG 20010904//EN"
 "http://www.w3.org/TR/2001/REC-SVG-20010904/DTD/svg10.dtd">
<svg version="1.0" xmlns="http://www.w3.org/2000/svg"
 width="1200.000000pt" height="899.000000pt" viewBox="0 0 1200.000000 899.000000"
 preserveAspectRatio="xMidYMid meet">
<metadata>
Created by potrace 1.16, written by Peter Selinger 2001-2019
</metadata>
<g transform="translate(0.000000,899.000000) scale(0.100000,-0.100000)"
fill="#000000" stroke="none">
<path d="M3465 5153 c-22 -14 -79 -63 -126 -109 -62 -60 -104 -91 -150 -112
-73 -33 -174 -106 -205 -149 -44 -59 -73 -133 -95 -237 -20 -94 -21 -111 -9
-144 23 -65 38 -81 85 -88 54 -8 105 8 171 52 27 18 65 37 84 40 18 4 41 15
52 26 11 11 32 18 56 18 41 0 62 14 62 42 0 26 40 47 77 41 27 -4 32 -10 35
-37 3 -29 5 -31 43 -31 40 0 40 0 43 42 4 61 17 67 102 49 90 -18 193 -67 293
-140 43 -30 88 -61 100 -68 12 -6 42 -32 67 -57 25 -25 85 -73 133 -106 48
-33 115 -82 150 -109 64 -49 124 -86 113 -67 -6 9 -149 113 -236 171 -20 14
-65 48 -99 75 l-62 50 5 53 c7 58 29 109 83 187 l34 50 -36 -40 c-41 -46 -85
-129 -85 -160 0 -12 -7 -30 -16 -41 -15 -18 -15 -17 -10 14 4 23 2 31 -5 26
-8 -5 -9 12 -5 57 5 46 4 60 -3 49 -6 -8 -11 -24 -11 -35 0 -11 -5 -27 -11
-35 -8 -11 -9 -5 -4 25 4 22 8 52 9 66 1 34 25 59 95 106 30 20 49 39 43 41
-26 8 -167 -122 -189 -176 -12 -29 -11 -36 8 -74 26 -50 19 -48 -84 25 -43 31
-86 59 -97 62 -24 8 -25 26 -5 115 16 75 18 95 4 61 -5 -13 -12 -22 -15 -19
-2 3 3 24 12 47 12 29 26 46 47 54 l30 13 -44 36 c-70 57 -117 78 -176 78 -69
0 -105 -29 -105 -84 0 -51 17 -68 33 -33 12 28 20 32 32 20 4 -4 -5 -19 -19
-34 -16 -16 -23 -32 -19 -40 6 -9 11 -9 19 2 7 8 29 30 50 49 31 29 37 31 34
15 -1 -11 -20 -36 -42 -56 l-38 -35 31 -51 c17 -27 31 -58 31 -67 0 -17 -6
-17 -90 5 -31 8 -38 6 -58 -17 -18 -21 -21 -33 -16 -62 6 -31 5 -34 -10 -29
-10 4 -20 7 -22 7 -2 0 -4 22 -4 49 0 61 -20 72 -75 42 -21 -11 -43 -17 -51
-14 -8 3 -14 -1 -14 -11 0 -18 -15 -21 -25 -6 -4 7 -15 2 -27 -12 -11 -13 -26
-22 -33 -20 -7 1 -30 -15 -53 -37 -41 -40 -134 -89 -210 -112 -79 -23 -117 20
-94 106 6 23 30 90 53 150 51 132 86 171 215 234 49 24 127 69 173 100 151
101 186 121 226 133 22 6 45 18 52 26 10 12 16 11 42 -4 30 -17 42 -44 21 -44
-5 0 -10 4 -10 9 0 5 -8 12 -17 15 -10 3 -5 -6 13 -22 17 -16 72 -74 122 -130
51 -55 105 -110 121 -122 l30 -20 51 19 c51 20 52 20 47 0 -3 -12 0 -19 8 -19
8 0 20 -6 27 -13 55 -53 282 -145 532 -217 60 -17 179 -60 265 -94 86 -34 181
-70 211 -80 48 -16 290 -113 375 -150 17 -8 63 -26 104 -40 133 -48 220 -87
218 -99 -1 -7 9 -12 23 -12 14 0 35 -9 47 -20 12 -11 84 -45 160 -74 76 -30
156 -62 178 -71 22 -10 58 -23 80 -30 22 -7 55 -21 74 -32 19 -11 43 -17 53
-15 26 7 67 -15 70 -38 2 -11 8 -20 13 -20 6 -1 21 -7 34 -14 13 -7 38 -11 57
-8 21 4 37 1 44 -8 7 -8 37 -24 68 -35 32 -12 67 -28 79 -36 27 -17 63 -19
196 -10 82 5 107 3 152 -13 29 -10 56 -17 59 -14 2 3 46 6 98 7 56 2 107 9
128 18 19 8 51 22 70 31 l35 15 -40 -5 c-22 -3 -56 -14 -75 -25 -44 -23 -220
-25 -291 -4 -36 11 -71 12 -164 5 -117 -9 -118 -9 -185 21 -38 17 -73 30 -79
30 -6 0 -19 8 -29 18 -9 9 -37 25 -62 35 -25 10 -73 32 -107 49 -34 16 -67 27
-73 23 -6 -4 -27 2 -48 13 -20 10 -49 22 -64 25 -32 8 -161 67 -168 77 -6 8
-289 130 -302 130 -5 0 -41 15 -81 34 -40 19 -110 48 -157 64 -84 30 -348 136
-425 171 -22 10 -68 25 -102 35 -34 9 -95 32 -135 50 -79 35 -264 99 -393 136
-110 31 -353 129 -391 157 -17 12 -36 34 -43 47 -18 32 -43 37 -96 19 -54 -18
-57 -16 -146 82 -35 38 -76 83 -91 98 -16 16 -28 33 -28 39 0 25 -37 68 -69
81 -68 27 -108 37 -125 31 -11 -4 -16 -1 -16 10 0 24 -49 19 -95 -11z"/>
<path d="M4833 4317 c-41 -44 -73 -92 -73 -110 0 -15 56 -47 82 -47 19 0 74
53 60 58 -7 2 -12 8 -12 14 0 7 5 6 14 -1 18 -15 70 9 86 38 12 23 -9 39 -81
63 l-47 16 -29 -31z"/>
<path d="M5040 4253 c0 -16 22 -32 36 -26 8 3 35 -2 61 -11 27 -8 62 -19 78
-24 17 -5 30 -14 30 -21 0 -16 34 -41 56 -41 21 0 31 -14 33 -44 1 -15 8 -21
22 -20 16 0 20 -4 16 -18 -5 -22 -8 -22 -40 1 -15 10 -57 33 -94 51 -38 17
-68 37 -68 43 -1 15 -88 82 -97 74 -7 -7 51 -67 65 -67 5 0 12 -6 15 -14 3 -7
40 -31 84 -52 43 -21 82 -44 88 -51 10 -12 192 -85 295 -118 30 -10 71 -28 90
-40 19 -12 85 -46 145 -77 87 -42 117 -53 138 -47 14 4 42 3 62 -1 19 -4 54
-4 77 2 47 11 108 39 108 49 0 8 -135 68 -345 152 -88 35 -230 94 -316 130
-159 68 -201 82 -394 135 -60 17 -118 34 -127 37 -10 4 -18 3 -18 -2z"/>
<path d="M7875 3798 c-60 -4 -128 -14 -150 -22 -45 -16 -106 -31 -117 -28 -5
1 -8 -3 -8 -9 0 -6 6 -9 14 -6 7 3 34 9 60 12 25 4 46 11 46 15 0 10 175 30
267 30 130 0 348 -74 435 -148 45 -38 88 -64 88 -54 0 5 -22 26 -50 48 -58 46
-66 69 -19 59 39 -9 266 -111 302 -137 15 -11 27 -25 27 -31 0 -19 35 -37 51
-26 11 7 9 9 -8 9 -13 0 -23 4 -23 10 0 5 14 7 33 4 30 -5 31 -5 13 10 -11 9
-24 16 -30 16 -6 0 -6 4 1 11 9 9 20 8 45 -1 18 -6 80 -14 138 -17 96 -6 109
-9 155 -38 95 -61 158 -145 205 -272 14 -38 -1 -174 -26 -232 -17 -39 -13 -49
66 -141 26 -30 49 -63 53 -72 7 -19 27 -25 27 -8 0 6 -30 47 -66 91 -56 67
-65 84 -60 107 42 200 43 227 7 304 -11 26 -21 52 -21 57 0 6 -4 11 -8 11 -4
0 -15 13 -25 29 -27 47 -87 104 -146 141 -50 32 -63 35 -170 43 -64 5 -143 10
-176 11 -50 2 -82 12 -194 65 -140 66 -192 81 -214 62 -11 -8 -43 1 -135 39
-75 31 -144 52 -179 56 -32 3 -67 6 -78 8 -11 1 -69 -1 -130 -6z"/>
<path d="M6468 3590 c-12 -27 -25 -47 -29 -44 -5 3 -11 -8 -15 -23 -4 -15 -10
-32 -14 -38 -3 -5 -12 -30 -19 -55 -7 -25 -19 -55 -26 -66 -18 -28 -42 -125
-48 -198 -7 -76 6 -63 44 41 17 48 28 68 28 52 1 -14 -3 -29 -8 -35 -5 -5 -16
-35 -25 -66 -9 -32 -19 -64 -22 -73 -3 -8 -1 -15 5 -15 6 0 11 9 11 19 0 11 4
22 9 25 4 3 11 19 14 36 4 16 11 30 17 30 6 0 6 -9 0 -26 -11 -27 -5 -48 10
-39 5 3 12 -6 16 -20 11 -45 31 -29 39 33 10 85 26 111 19 32 -3 -36 -7 -78
-10 -95 -4 -17 13 8 40 60 25 50 46 84 46 76 0 -8 -16 -43 -35 -78 -25 -45
-32 -68 -27 -84 7 -17 15 -6 47 67 41 92 60 103 25 14 -30 -75 -16 -75 20 1
16 35 27 51 23 34 -3 -16 -22 -63 -42 -105 -47 -98 -45 -94 -32 -86 6 4 29 43
51 86 22 43 44 81 50 85 5 3 10 16 10 29 0 12 6 31 14 42 13 17 14 14 5 -24
-5 -24 -21 -66 -35 -94 -14 -27 -23 -52 -21 -54 2 -3 10 9 17 26 7 16 16 30
21 30 5 0 9 6 10 13 0 6 9 30 20 52 16 35 17 21 1 -25 -3 -8 4 -4 16 10 29 34
27 17 -5 -41 -19 -36 -29 -46 -36 -37 -6 10 -8 9 -4 -3 3 -9 0 -22 -6 -28 -8
-8 -8 -11 1 -11 7 0 12 5 12 10 0 6 7 10 15 10 24 0 64 89 125 284 13 41 -2
22 -38 -47 -26 -51 -31 -56 -37 -37 -4 12 -4 24 -1 27 3 4 6 0 6 -8 0 -11 2
-11 10 1 5 8 10 29 10 47 0 17 5 35 10 38 6 3 10 14 10 23 0 30 -20 -3 -29
-49 l-9 -44 -1 64 c-1 35 -3 62 -5 60 -3 -3 -10 -36 -16 -74 -6 -37 -16 -76
-21 -84 -11 -17 -8 1 7 58 5 18 4 22 -5 16 -10 -6 -11 -3 -2 13 6 11 13 60 16
109 4 79 3 83 -6 38 -6 -27 -13 -52 -17 -55 -4 -3 -13 -16 -19 -30 -10 -20
-11 -7 -8 70 5 96 1 95 -24 -5 -9 -33 -10 -24 -6 55 l4 95 -22 -57 c-11 -32
-25 -58 -29 -58 -5 0 -2 13 7 30 18 35 20 77 3 82 -7 3 -21 -11 -30 -31 l-18
-36 2 40 c1 60 0 65 -22 65 -14 0 -26 -14 -42 -50z"/>
<path d="M6352 3538 c-33 -74 -78 -232 -92 -328 -5 -36 -12 -76 -15 -90 -3
-14 4 -3 15 25 29 68 33 69 27 5 l-6 -55 10 45 c5 25 17 79 25 120 9 41 24 89
33 105 23 40 51 124 50 149 0 20 -1 20 -11 -1 -6 -13 -15 -23 -20 -23 -5 0 -7
-8 -4 -18 4 -10 -5 -41 -19 -69 -13 -29 -32 -82 -41 -118 -9 -36 -18 -64 -20
-62 -6 6 22 125 40 172 8 22 15 50 16 62 0 12 6 28 13 35 13 13 33 88 24 88
-3 0 -14 -19 -25 -42z"/>
<path d="M5028 3489 c39 -37 51 -56 46 -68 -17 -39 -15 -67 6 -89 25 -27 63
-26 68 1 2 11 11 27 20 37 15 18 17 18 57 -10 65 -44 114 -91 153 -145 20 -27
50 -63 66 -79 l29 -30 -36 -12 c-20 -7 -67 -32 -104 -56 -38 -24 -93 -59 -123
-76 -30 -18 -75 -48 -100 -67 -103 -79 -214 -155 -226 -155 -7 0 -18 -9 -24
-20 -6 -11 -17 -20 -25 -20 -7 0 -15 -4 -17 -8 -1 -4 -34 -21 -73 -38 -102
-43 -157 -84 -280 -211 -60 -62 -117 -113 -126 -113 -8 0 -30 -13 -49 -30 -18
-16 -37 -27 -41 -24 -5 3 -11 -7 -15 -21 -3 -14 -12 -25 -19 -25 -7 0 -15 -8
-17 -17 -3 -10 -39 -36 -82 -57 -42 -22 -76 -43 -76 -47 0 -8 52 18 130 64
101 61 315 248 379 334 23 29 113 103 127 103 3 0 35 14 71 30 35 17 68 30 73
30 5 0 20 11 34 25 14 14 29 25 34 25 5 0 29 16 55 36 25 20 90 59 144 88 54
29 171 97 260 152 l162 98 -21 23 c-24 26 -18 30 15 9 13 -8 35 -12 54 -9 29
5 31 7 21 29 -16 35 -234 194 -266 194 -15 0 -117 52 -124 63 -8 13 -45 -28
-54 -60 -8 -30 -27 -29 -44 2 -11 21 -12 32 -1 61 l13 36 -54 48 c-71 65 -88
64 -20 -1z"/>
<path d="M7160 3395 c-26 -36 -45 -44 -53 -22 -3 6 -6 1 -7 -13 l-1 -25 -11
25 -11 25 -5 -24 c-2 -13 0 -26 5 -30 4 -3 8 -60 8 -126 0 -66 3 -176 7 -245
4 -69 3 -141 -2 -160 -4 -19 -8 -29 -9 -22 -1 6 -5 12 -10 12 -11 0 1 -47 18
-77 9 -16 11 -14 12 12 1 17 1 44 0 60 -1 24 0 27 9 15 7 -11 9 41 5 180 -3
130 -2 191 5 184 5 -5 13 -93 17 -194 3 -101 10 -175 13 -165 6 16 9 12 16
-20 7 -37 8 -38 15 -15 6 23 7 23 8 3 1 -12 6 -34 12 -50 8 -22 12 -24 19 -13
6 9 10 10 10 3 0 -7 10 -10 24 -7 16 3 26 -2 30 -12 5 -13 9 -14 21 -4 13 10
19 9 36 -6 17 -16 22 -16 30 -4 5 8 7 29 4 45 -16 78 -22 200 -11 207 14 9 27
-46 20 -87 l-5 -30 14 24 c14 24 14 35 -3 96 -5 17 -11 53 -14 82 -3 28 -9 59
-13 69 -3 9 -2 15 3 12 8 -5 11 69 4 97 -1 6 -2 24 -1 40 l1 30 -14 -25 -15
-25 -2 25 c-1 14 0 49 1 79 1 37 -1 51 -9 47 -6 -4 -11 -18 -11 -31 0 -13 -5
-27 -10 -30 -6 -4 -10 -12 -9 -18 5 -45 -16 -51 -26 -8 -4 20 -1 38 11 56 15
23 15 25 0 19 -9 -3 -16 -2 -16 3 0 5 -7 18 -16 29 -15 18 -15 18 -5 -3 15
-30 14 -38 -4 -23 -8 7 -15 22 -16 34 0 11 -3 15 -6 9 -2 -7 -10 -13 -16 -13
-6 0 -19 -7 -29 -17 -10 -9 -18 -11 -18 -5 0 6 11 19 25 28 27 17 33 34 13 34
-7 0 -24 -16 -38 -35z"/>
<path d="M8212 3085 c-37 -7 -87 -27 -125 -50 -74 -46 -201 -145 -193 -152 3
-3 27 12 53 34 68 57 132 95 145 87 6 -4 8 -3 5 3 -6 9 50 49 58 41 2 -2 -20
-30 -50 -62 -54 -58 -71 -81 -38 -55 19 16 22 24 -27 -88 -24 -57 -31 -89 -33
-150 -2 -82 8 -119 25 -89 5 9 14 16 20 16 6 0 1 -11 -11 -24 -35 -38 -7 -41
36 -4 l38 33 -43 -48 c-60 -66 -44 -75 21 -12 71 69 93 73 199 37 127 -45 140
-56 153 -139 l6 -38 -15 31 c-19 42 -77 85 -128 94 -54 10 -151 -4 -180 -26
-26 -19 -71 -84 -64 -91 2 -3 17 3 33 12 l28 17 -27 -24 c-16 -13 -28 -27 -28
-31 0 -8 51 23 62 37 3 5 13 11 22 12 18 2 28 -45 47 -208 7 -60 16 -108 21
-108 4 0 8 6 8 13 0 30 -39 288 -45 297 -9 15 13 40 35 40 29 0 41 -24 76
-148 18 -64 38 -118 43 -120 6 -2 8 -18 5 -35 -4 -27 -3 -29 6 -12 8 16 9 12
4 -18 -3 -24 -2 -37 4 -33 5 3 9 -2 8 -11 -1 -11 19 -24 64 -42 l65 -26 -1
-45 c0 -25 -2 -83 -4 -130 -1 -47 -1 -97 2 -111 3 -14 11 -50 18 -80 15 -67 8
-198 -15 -304 -9 -45 -15 -105 -13 -136 3 -41 1 -56 -9 -56 -7 0 -13 5 -13 11
0 6 -3 6 -9 0 -5 -5 -11 -62 -13 -126 -4 -103 -3 -118 11 -119 11 0 12 -2 3
-6 -10 -4 -10 -7 2 -17 11 -8 15 -36 17 -110 3 -87 1 -100 -16 -112 -10 -8
-14 -14 -8 -14 7 0 18 7 27 15 28 29 69 29 132 -1 51 -24 71 -27 149 -26 87 1
149 -9 190 -28 11 -6 38 -16 60 -24 27 -9 39 -19 37 -30 -2 -11 5 -16 23 -16
29 0 29 0 11 -60 -10 -32 -18 -44 -30 -42 -10 2 -16 -4 -16 -18 0 -37 -39 -41
-329 -38 l-276 3 -81 34 c-79 33 -82 35 -88 72 -3 21 -11 41 -18 45 -8 5 -9
-2 -3 -27 4 -19 9 -47 10 -62 3 -38 18 -52 42 -39 15 8 36 5 88 -14 89 -32
175 -38 429 -29 198 7 210 8 232 30 12 12 29 25 38 28 9 4 16 14 16 23 0 10 6
33 12 52 11 30 11 35 -7 47 -11 8 -27 21 -35 29 -8 8 -29 18 -45 22 -17 4 -48
16 -70 28 -31 15 -61 21 -130 22 -104 1 -154 10 -210 35 -22 10 -56 19 -77 19
l-36 0 -4 103 c-1 56 0 134 4 172 4 39 7 127 7 196 1 86 6 142 18 180 22 75
23 263 0 345 -21 77 -21 125 -1 245 16 91 16 160 -2 344 -5 57 -4 62 25 90 42
42 59 55 69 55 5 0 17 9 27 20 24 27 134 60 199 60 31 0 65 7 86 18 19 11 47
22 61 25 14 4 49 25 76 47 28 22 54 40 57 40 3 0 31 16 62 36 41 26 59 33 64
24 5 -9 30 -11 81 -8 49 3 85 0 108 -9 37 -16 44 -13 47 20 2 12 0 16 -2 10
-3 -7 -14 -13 -24 -13 -23 0 -209 49 -233 61 -13 8 -20 4 -29 -16 -6 -14 -15
-25 -20 -25 -4 0 -8 -6 -8 -14 0 -7 -16 -26 -35 -40 -19 -15 -35 -24 -35 -21
0 3 -23 -13 -51 -35 -51 -40 -73 -48 -84 -30 -11 17 -23 11 -27 -12 -2 -13
-15 -29 -30 -36 -24 -11 -30 -11 -48 6 -14 13 -18 25 -13 38 6 17 5 17 -10 5
-16 -13 -17 -12 -7 15 6 16 21 40 33 53 l22 24 -30 -18 c-16 -10 -40 -27 -51
-38 -31 -27 -37 -9 -25 79 14 94 14 114 1 114 -5 0 -10 -24 -10 -53 0 -54 -22
-155 -41 -194 -6 -12 -20 -24 -30 -26 -11 -3 -19 -13 -19 -24 -1 -22 -96 -98
-122 -96 -10 1 -18 -4 -18 -11 0 -8 -7 -19 -15 -26 -12 -10 -15 -10 -15 3 0 8
-3 23 -7 33 -5 13 -3 15 7 9 13 -8 13 -7 -9 38 -17 33 -7 48 14 21 15 -18 15
-18 9 8 -5 21 -2 29 11 34 12 5 15 14 11 30 -4 14 -2 24 4 24 19 0 11 175 -12
276 -17 77 -28 102 -55 132 l-34 37 27 -45 27 -45 -52 47 c-34 31 -71 53 -104
63 -28 8 -53 14 -56 14 -3 -1 -34 -7 -69 -14z m168 -756 c22 -90 44 -177 50
-194 16 -52 1 37 -26 153 -13 57 -24 116 -23 130 l1 27 12 -29 13 -29 11 29
10 29 1 -37 c1 -36 32 -103 43 -93 3 3 4 -14 2 -37 -2 -24 0 -63 5 -88 6 -31
9 -37 11 -20 l2 25 7 -25 c4 -14 3 -28 -3 -32 -7 -5 -7 -19 0 -47 9 -32 8 -38
-3 -34 -7 3 -13 13 -14 22 0 9 -7 34 -14 56 l-14 40 6 -52 c5 -49 4 -51 -15
-46 -24 6 -66 119 -107 293 -25 105 -27 97 -10 -50 3 -30 -3 -17 -18 40 -12
47 -18 88 -14 91 4 3 3 17 -2 32 -8 21 -7 26 7 30 9 2 23 -1 30 -8 7 -6 30
-85 52 -176z"/>
<path d="M6447 2663 c-4 -3 -7 -13 -7 -21 0 -7 -9 -21 -20 -30 -16 -13 -23
-36 -30 -102 -5 -47 -10 -93 -10 -102 0 -14 -8 -18 -34 -18 l-33 0 7 48 c4 26
11 84 15 130 7 80 7 82 -15 82 -22 0 -173 -56 -235 -87 -47 -24 -105 -84 -105
-110 0 -15 -6 -23 -17 -23 -10 0 -29 -9 -42 -19 -24 -18 -25 -18 -51 0 l-26
20 -122 -58 -123 -58 3 -95 c2 -91 1 -95 -20 -98 -21 -3 -22 -1 -22 92 l0 95
-34 -14 c-50 -21 -108 -57 -101 -63 3 -3 18 4 34 16 16 12 41 24 55 28 l26 6
0 -81 c0 -77 1 -81 24 -87 55 -14 61 -6 62 86 0 47 1 90 2 97 2 14 94 66 164
94 46 18 52 18 68 4 19 -17 51 -20 67 -4 5 5 25 18 44 27 24 12 35 25 37 44 5
38 89 99 192 137 136 52 123 56 114 -35 -5 -43 -9 -101 -9 -129 l0 -50 41 -3
c48 -3 45 -10 64 129 11 71 16 87 34 95 11 5 22 19 24 32 6 42 27 29 117 -79
17 -20 54 -57 83 -82 50 -45 55 -47 113 -47 33 0 89 7 125 16 56 14 73 15 119
4 29 -7 72 -10 95 -7 25 3 58 0 82 -9 22 -8 55 -14 74 -14 18 0 39 -7 48 -15
8 -8 30 -15 50 -15 l35 0 3 -67 c3 -63 5 -68 29 -77 51 -18 59 -5 59 89 0 79
1 85 20 85 11 0 22 -6 24 -12 2 -7 8 -22 12 -33 7 -19 8 -19 12 4 2 13 -2 27
-8 31 -6 4 -11 11 -11 16 1 5 -3 9 -9 8 -5 -1 -21 -2 -35 -2 -25 -2 -25 -3
-25 -92 0 -81 -2 -90 -19 -90 -25 0 -31 28 -24 112 l6 70 -44 -4 c-44 -5 -189
15 -234 32 -13 5 -27 5 -29 1 -7 -11 -97 -6 -122 6 -10 6 -28 9 -39 7 -11 -3
-33 -5 -50 -7 -16 -1 -36 -7 -44 -12 -8 -5 -47 -10 -85 -11 l-71 -2 -111 114
c-83 86 -117 114 -135 114 -14 0 -29 -3 -32 -7z"/>
<path d="M7756 2440 c-7 -22 -9 -22 -13 -6 -4 15 -11 17 -46 12 -23 -4 -42 -8
-44 -10 -6 -6 60 -324 76 -366 25 -65 55 -78 130 -54 31 9 73 29 95 43 l38 25
-7 86 c-4 55 -12 90 -22 100 -13 13 -14 13 -9 -6 13 -42 22 -154 14 -166 -4
-8 -8 3 -8 27 0 22 -11 81 -24 130 -13 50 -27 107 -30 127 -4 20 -14 46 -24
58 -17 20 -17 17 -10 -82 4 -57 15 -149 26 -206 13 -69 16 -102 8 -99 -14 5
-45 190 -47 286 -1 41 -5 86 -10 100 -6 16 -7 -24 -5 -106 3 -78 1 -133 -5
-133 -5 0 -9 6 -9 14 0 8 -5 60 -11 117 -14 140 -29 162 -24 34 5 -105 -5 -88
-22 40 -7 51 -10 56 -17 35z"/>
<path d="M5386 2221 c-3 -5 -15 -7 -26 -4 -22 6 -60 -21 -60 -42 0 -22 -96
-45 -220 -55 -157 -11 -223 -34 -390 -137 -36 -22 -125 -63 -198 -91 -73 -28
-140 -59 -150 -70 -9 -11 -48 -30 -87 -42 -93 -29 -205 -82 -205 -97 0 -22
-49 7 -69 41 -24 39 -51 130 -51 172 0 35 23 88 33 77 4 -3 7 7 7 24 0 26 7
34 53 58 120 64 178 98 175 101 -2 2 -37 -13 -77 -32 -40 -19 -80 -32 -89 -30
-10 3 -24 1 -32 -5 -11 -8 -9 -9 10 -4 19 5 22 4 10 -4 -8 -6 -23 -11 -33 -11
-33 0 -73 -28 -93 -65 -12 -22 -28 -38 -44 -41 -14 -2 -38 -9 -55 -14 -16 -5
-48 -12 -70 -16 -22 -4 -60 -17 -85 -29 -25 -12 -77 -32 -117 -44 -53 -16 -77
-29 -95 -51 -13 -17 -33 -42 -45 -57 -13 -14 -23 -37 -23 -50 0 -25 49 -124
76 -154 8 -8 14 -20 14 -25 0 -5 27 -45 60 -89 33 -44 63 -91 67 -104 3 -14
12 -36 19 -50 8 -14 14 -42 14 -62 0 -48 51 -124 110 -164 45 -30 46 -30 183
-30 l138 0 44 48 c26 27 45 57 45 70 -1 41 -37 90 -96 132 -65 46 -62 35 -48
170 5 51 12 74 26 83 10 7 18 22 18 32 0 10 5 22 10 25 6 3 10 14 10 24 0 44
26 73 100 111 41 21 104 46 139 56 44 12 65 23 69 36 2 10 12 18 21 18 9 0 21
4 26 9 6 5 43 21 83 35 104 37 151 60 266 128 115 69 201 95 341 104 103 6
190 34 221 71 18 21 28 25 69 22 35 -3 50 0 53 10 3 9 0 11 -7 7 -7 -4 -18 -3
-26 4 -8 7 -16 7 -19 1z m-1614 -414 c17 -76 45 -144 54 -134 3 3 1 13 -5 24
-14 23 -40 154 -30 147 4 -2 10 4 12 13 3 11 5 6 6 -12 2 -41 26 -136 40 -164
18 -32 26 -18 12 20 -18 52 -12 68 8 23 24 -52 51 -84 72 -84 8 0 19 -3 23 -7
4 -5 18 -8 29 -8 19 0 22 -5 20 -35 -1 -21 -9 -41 -22 -51 -15 -13 -21 -29
-21 -59 0 -22 -5 -61 -11 -85 -16 -65 -7 -85 61 -130 43 -29 64 -50 75 -78 21
-51 19 -62 -12 -82 -23 -15 -43 -17 -148 -12 -67 2 -131 9 -141 15 -31 17 -83
113 -100 187 -31 134 -35 145 -47 145 -20 0 -64 80 -97 180 -18 52 -39 107
-47 121 -9 15 -13 34 -10 43 7 18 114 74 177 91 78 22 82 20 102 -68z"/>
<path d="M7724 1365 c4 -16 25 -48 46 -70 32 -34 36 -43 27 -58 -9 -13 -9 -19
-1 -25 6 -4 14 -17 18 -29 4 -13 12 -23 17 -23 6 0 24 -13 40 -29 22 -23 49
-34 118 -50 108 -26 111 -26 111 -2 0 14 -9 21 -32 26 -183 38 -228 60 -228
115 0 20 -12 39 -45 69 -25 23 -45 50 -45 60 0 10 -7 25 -17 32 -15 13 -16 11
-9 -16z"/>
</g>
</svg>
